<svg width="50.000000" height="50.000000" viewBox="0 0 50 50" fill="none" xmlns="http://www.w3.org/2000/svg" xmlns:xlink="http://www.w3.org/1999/xlink">
	<desc>
			Created with Pixso.
	</desc>
	<defs>
		<clipPath id="clip178_83">
			<rect id="Icon/Outline/collection" width="50.000000" height="50.000000" fill="white" fill-opacity="0"/>
		</clipPath>
	</defs>
	<g clip-path="url(#clip178_83)">
		<path id="Icon" d="M39.5833 22.9166C41.8845 22.9166 43.75 24.7821 43.75 27.0834L43.75 39.5834C43.75 41.8845 41.8845 43.75 39.5833 43.75L10.4167 43.75C8.11548 43.75 6.25 41.8845 6.25 39.5834L6.25 27.0834C6.25 24.7821 8.11548 22.9166 10.4167 22.9166L39.5833 22.9166ZM14.5833 14.5834L14.5833 10.4166C14.5833 8.11548 16.4487 6.25 18.75 6.25L31.25 6.25C33.5513 6.25 35.4167 8.11548 35.4167 10.4166L35.4167 14.5834M39.5833 22.9166L39.5833 18.75C39.5833 16.4489 37.7178 14.5834 35.4167 14.5834L14.5833 14.5834C12.2822 14.5834 10.4167 16.4489 10.4167 18.75L10.4167 22.9166" stroke="#A0A0A1" stroke-opacity="1.000000" stroke-width="3.000000" stroke-linejoin="round"/>
	</g>
</svg>
