<svg width="50.000000" height="50.000000" viewBox="0 0 50 50" fill="none" xmlns="http://www.w3.org/2000/svg" xmlns:xlink="http://www.w3.org/1999/xlink">
	<desc>
			Created with Pixso.
	</desc>
	<defs>
		<clipPath id="clip178_91">
			<rect id="Icon/Outline/speakerphone" width="50.000000" height="50.000000" fill="white" fill-opacity="0"/>
		</clipPath>
	</defs>
	<g clip-path="url(#clip178_91)">
		<path id="Icon" d="M14.5833 12.5C9.98096 12.5 6.25 16.231 6.25 20.8334C6.25 24.2799 8.34229 27.2377 11.3259 28.506C12.3267 28.9313 13.4275 29.1666 14.5833 29.1666L18.4001 29.1666C26.9431 29.1666 34.2852 31.7377 37.5 35.4166L37.5 6.25C34.2852 9.92896 26.9431 12.5 18.4001 12.5L14.5833 12.5ZM22.9167 12.2545L22.9167 40.0837C22.9167 42.1085 21.2751 43.75 19.2505 43.75C17.7009 43.75 16.3188 42.776 15.7976 41.3168L11.3259 28.506M37.5 14.5834C40.9517 14.5834 43.75 17.3816 43.75 20.8334C43.75 24.2852 40.9517 27.0834 37.5 27.0834" stroke="#A0A0A1" stroke-opacity="1.000000" stroke-width="3.000000" stroke-linejoin="round"/>
	</g>
</svg>
