<svg width="50.000000" height="50.000000" viewBox="0 0 50 50" fill="none" xmlns="http://www.w3.org/2000/svg" xmlns:xlink="http://www.w3.org/1999/xlink">
	<desc>
			Created with Pixso.
	</desc>
	<defs>
		<clipPath id="clip178_89">
			<rect id="Icon/Outline/template" width="50.000000" height="50.000000" fill="white" fill-opacity="0"/>
		</clipPath>
	</defs>
	<g clip-path="url(#clip178_89)">
		<path id="Icon" d="M39.5835 8.33337C40.7341 8.33337 41.6667 9.26611 41.6667 10.4167L41.6667 14.5834C41.6667 15.734 40.7341 16.6667 39.5835 16.6667L10.4167 16.6667C9.26636 16.6667 8.3335 15.734 8.3335 14.5834L8.3335 10.4167C8.3335 9.26611 9.26636 8.33337 10.4167 8.33337L39.5835 8.33337ZM22.9167 25C24.0674 25 25.0002 25.9327 25.0002 27.0834L25.0002 39.5834C25.0002 40.734 24.0674 41.6667 22.9167 41.6667L10.4167 41.6667C9.26636 41.6667 8.3335 40.734 8.3335 39.5834L8.3335 27.0834C8.3335 25.9327 9.26636 25 10.4167 25L22.9167 25ZM39.5835 25C40.7341 25 41.6667 25.9327 41.6667 27.0834L41.6667 39.5834C41.6667 40.734 40.7341 41.6667 39.5835 41.6667L35.4167 41.6667C34.2661 41.6667 33.3335 40.734 33.3335 39.5834L33.3335 27.0834C33.3335 25.9327 34.2661 25 35.4167 25L39.5835 25Z" stroke="#A0A0A1" stroke-opacity="1.000000" stroke-width="3.000000" stroke-linejoin="round"/>
	</g>
</svg>
