<svg width="50.000000" height="50.000000" viewBox="0 0 50 50" fill="none" xmlns="http://www.w3.org/2000/svg" xmlns:xlink="http://www.w3.org/1999/xlink">
	<desc>
			Created with Pixso.
	</desc>
	<defs>
		<clipPath id="clip178_121">
			<rect id="Icon/Outline/user-add" width="50.000000" height="50.000000" fill="white" fill-opacity="0"/>
		</clipPath>
	</defs>
	<g clip-path="url(#clip178_121)">
		<path id="Icon" d="M18.75 22.9167C14.1477 22.9167 10.4167 19.1857 10.4167 14.5833C10.4167 9.98096 14.1477 6.25 18.75 6.25C23.3523 6.25 27.0833 9.98096 27.0833 14.5833C27.0833 19.1857 23.3523 22.9167 18.75 22.9167ZM18.75 29.1667C25.6536 29.1667 31.25 34.7631 31.25 41.6667L31.25 43.75L6.25 43.75L6.25 41.6667C6.25 34.7631 11.8464 29.1667 18.75 29.1667ZM37.5 18.75L37.5 25L37.5 31.25M43.75 25L37.5 25M37.5 25L31.25 25" stroke="#A0A0A1" stroke-opacity="1.000000" stroke-width="3.000000" stroke-linejoin="round"/>
	</g>
</svg>
